# This file uses centimeters as units for non-parametric coordinates.

mtllib HUDPlane.mtl
g default
v 8.780439 -8.780434 0.000005
v 8.780439 8.780434 0.000005
v -8.780435 -8.780434 -0.000005
v -8.780435 8.780434 -0.000005
vt 0.000000 0.000000
vt 1.000000 0.000000
vt 0.000000 1.000000
vt 1.000000 1.000000
vn -0.000001 0.000000 1.000000
vn -0.000001 0.000000 1.000000
vn -0.000001 0.000000 1.000000
vn -0.000001 0.000000 1.000000
s 1
g pPlane1
usemtl initialShadingGroup
f 1/1/1 2/2/2 3/3/3
f 3/3/3 2/2/2 4/4/4
